<?xml version="1.0" standalone="no"?>
<!DOCTYPE svg PUBLIC "-//W3C//DTD SVG 1.1//EN" "http://www.w3.org/Graphics/SVG/1.1/DTD/svg11.dtd" >
<svg xmlns="http://www.w3.org/2000/svg">
<metadata></metadata>
<defs>
<font id="tradegothicregular" horiz-adv-x="1024" >
<font-face units-per-em="2048" ascent="1638" descent="-410" />
<missing-glyph horiz-adv-x="624" />
<glyph horiz-adv-x="2048" />
<glyph horiz-adv-x="2048" />
<glyph unicode="&#xd;" horiz-adv-x="624" />
<glyph unicode=" "  horiz-adv-x="624" />
<glyph unicode="&#x09;" horiz-adv-x="624" />
<glyph unicode="&#xa0;" horiz-adv-x="624" />
<glyph unicode="!" horiz-adv-x="681" d="M231 1479h218l-43 -1012h-132zM240 0v225h200v-225h-200z" />
<glyph unicode="&#x22;" horiz-adv-x="681" d="M156 926v553h127v-553h-127zM399 926v553h127v-553h-127z" />
<glyph unicode="#" horiz-adv-x="1251" d="M125 471v115h219l41 311h-203v115h219l64 467h127l-64 -467h279l61 467h127l-61 -467h192v-115h-208l-44 -311h195v-115h-211l-63 -471h-127l63 471h-276l-64 -471h-127l64 471h-203zM471 586h277l43 311h-279z" />
<glyph unicode="$" horiz-adv-x="1251" d="M113 268l118 90q150 -221 332 -231v571q-414 98 -413 404q0 180 121.5 278.5t291.5 98.5v157h139v-157q117 -8 218.5 -79t160.5 -163l-106 -86q-102 170 -273 201v-535q229 -74 332 -167t103 -261t-128 -278.5t-307 -110.5v-254h-139v254q-227 4 -450 268zM297 1126 q2 -219 266 -272v498q-121 2 -194.5 -60.5t-71.5 -165.5zM702 127q117 6 202 74.5t85 182.5t-90 185q-62 47 -197 90v-532z" />
<glyph unicode="%" horiz-adv-x="1820" d="M123 1139q0 143 99.5 241.5t242.5 98.5t242.5 -98.5t99.5 -241.5t-99.5 -241.5t-242.5 -98.5t-242.5 98t-99.5 242zM250 1139q0 -94 61.5 -153.5t153.5 -59.5t153.5 59t61.5 154q0 94 -61.5 153.5t-153.5 59.5t-153.5 -59.5t-61.5 -153.5zM424 -20l850 1519h121 l-850 -1519h-121zM1014 340q0 143 99 241.5t243 98.5q143 0 242.5 -98.5t99.5 -241.5t-99.5 -241.5t-242.5 -98.5t-242.5 98.5t-99.5 241.5zM1141 340q0 -94 61.5 -153.5t153.5 -59.5t153.5 59.5t61.5 153.5t-61.5 153.5t-153.5 59.5t-153.5 -59.5t-61.5 -153.5z" />
<glyph unicode="&#x26;" horiz-adv-x="1366" d="M90 403q0 244 322 447q-117 174 -117 354q0 129 90 212t231.5 83t227.5 -73.5t86 -194.5t-105 -236q-66 -74 -207 -176q115 -207 334 -446q90 116 133 372l136 -32q-51 -274 -166 -441q45 -49 122.5 -87t120.5 -38v-147h-53q-55 0 -141 43t-150 104q-156 -168 -422 -167 q-178 0 -310 118.5t-132 304.5zM254 389q0 -127 90 -199t209 -71q172 0 299 123q-229 264 -373 495q-109 -72 -167 -146.5t-58 -201.5zM459 1182q0 -86 86 -248q221 141 221 289q0 66 -44 107.5t-112 41.5t-109.5 -52t-41.5 -138z" />
<glyph unicode="'" horiz-adv-x="454" d="M164 926v553h127v-553h-127z" />
<glyph unicode="(" horiz-adv-x="681" d="M135 666.5q0 459.5 281 832.5h159q-293 -395 -292.5 -827.5t290.5 -843.5h-151q-287 379 -287 838.5z" />
<glyph unicode=")" horiz-adv-x="681" d="M106 -172q293 395 293 827.5t-290 843.5h151q287 -379 287 -838.5t-281 -832.5h-160z" />
<glyph unicode="*" d="M152 1161l36 133l281 -133l12 8l-45 310h137l-36 -305l14 -13l270 142l51 -138l-305 -63l-6 -17l217 -217l-110 -86l-150 275h-16l-150 -271l-106 80l213 234l-4 14z" />
<glyph unicode="+" horiz-adv-x="1228" d="M82 469v127h469v469h127v-469h469v-127h-469v-469h-127v469h-469z" />
<glyph unicode="," horiz-adv-x="624" d="M197 -303l96 303h-82v225h201v-225l-129 -303h-86z" />
<glyph unicode="-" horiz-adv-x="681" d="M82 469v127h516v-127h-516z" />
<glyph unicode="." horiz-adv-x="624" d="M211 0v225h201v-225h-201z" />
<glyph unicode="/" horiz-adv-x="569" d="M-16 -20l477 1519h125l-480 -1519h-122z" />
<glyph unicode="0" horiz-adv-x="1251" d="M102 739q0 760 523 760q522 0 522 -760t-522 -759q-523 -1 -523 759zM258 739q0 -633 367 -633t366 633q0 633 -366 633q-367 0 -367 -633z" />
<glyph unicode="1" horiz-adv-x="1251" d="M289 1300v97q139 43 190 59.5t94 42.5h148v-1372h252v-127h-656v127h256v1202z" />
<glyph unicode="2" horiz-adv-x="1251" d="M135 0v156q104 213 324 387q166 127 332 252q152 139 151 307q0 129 -79 199.5t-223 70.5t-234.5 -96t-110.5 -225l-145 32q96 416 497 416q190 0 320.5 -105.5t130.5 -293t-174 -359.5q-4 -2 -353 -280q-217 -172 -280 -334h805v-127h-961z" />
<glyph unicode="3" horiz-adv-x="1251" d="M70 270l118 82q182 -246 406 -246q162 0 255 77t93 210q0 332 -418 332h-145v127h88q422 0 422 276q0 109 -80 176.5t-198 67.5t-191 -48t-158 -157l-121 82q180 250 477 250q199 0 312.5 -97t113.5 -272q0 -238 -229 -327q283 -109 283 -393q0 -190 -137.5 -310 t-346 -120t-362.5 102q-114 75 -182 188z" />
<glyph unicode="4" horiz-adv-x="1251" d="M78 348v127l610 1004h217v-1004h254v-127h-254v-348h-147v348h-680zM233 475h525v848h-6z" />
<glyph unicode="5" horiz-adv-x="1251" d="M147 262l134 70q121 -225 342 -226q156 0 253.5 97.5t98 280t-89.5 285.5t-242 103q-215 0 -311 -223l-129 29l65 801h758v-127h-635l-37 -473q131 121 315.5 120.5t322.5 -131.5t138 -350t-114 -362q-139 -176 -398 -176q-289 0 -471 282z" />
<glyph unicode="6" horiz-adv-x="1251" d="M123 664q0 365 158.5 600t447.5 235q230 0 320 -86l-64 -125q-106 84 -252 84q-190 0 -321 -158.5t-133 -459.5q168 176 405 176q180 0 312 -125t132 -350t-145 -357q-135 -119 -332 -118q-528 0 -528 684zM283 487q6 -162 102 -268q98 -113 253 -113t245 95.5t90 254.5 t-92 253t-223 94t-249 -95.5t-126 -220.5z" />
<glyph unicode="7" horiz-adv-x="1251" d="M152 1352v127h938v-90l-625 -1389h-172l608 1352h-749z" />
<glyph unicode="8" horiz-adv-x="1251" d="M86 385q0 252 324 401v5q-262 98 -263 339q0 176 133.5 272.5t344.5 96.5t344 -96t133 -273q0 -242 -262 -339v-5q141 -51 232 -154.5t91 -246.5q0 -178 -139 -292t-399 -113q-260 0 -399.5 113.5t-139.5 291.5zM242 387q0 -113 98 -196.5t285 -84.5q186 0 284.5 84.5 t98.5 199t-117 198.5q-92 66 -293 133q-172 -74 -246 -133q-110 -88 -110 -201zM303 1143.5q0 -110.5 115 -193.5q84 -61 207 -96q135 33 228 109t93 183.5t-94 166.5t-227 59t-227.5 -59t-94.5 -169.5z" />
<glyph unicode="9" horiz-adv-x="1251" d="M123 1024q0 225 140 350t337 125q528 0 528 -684q0 -365 -158.5 -600.5t-447.5 -234.5q-229 0 -319 86l63 124q106 -84 252 -84q184 0 313 162t142 457q-168 -176 -406 -176q-180 0 -312 125t-132 350zM279 1023q0 -159 92 -253t220 -94t228 77t146 197 q-4 195 -98.5 308.5t-251.5 113.5t-246.5 -95t-89.5 -254z" />
<glyph unicode=":" horiz-adv-x="624" d="M211 0v225h201v-225h-201zM211 594v225h201v-225h-201z" />
<glyph unicode=";" horiz-adv-x="624" d="M197 -303l96 303h-82v225h201v-225l-129 -303h-86zM211 594v225h201v-225h-201z" />
<glyph unicode="&#x3c;" horiz-adv-x="1228" d="M94 475v115l1041 475v-127l-893 -406l893 -405v-127z" />
<glyph unicode="=" horiz-adv-x="1228" d="M82 260v127h1065v-127h-1065zM82 678v127h1065v-127h-1065z" />
<glyph unicode="&#x3e;" horiz-adv-x="1228" d="M94 0v127l893 405l-893 406v127l1041 -473v-119z" />
<glyph unicode="?" horiz-adv-x="909" d="M109 1274q102 225 333 225q137 0 234.5 -84t97.5 -212t-84 -240q-78 -92 -155 -183q-84 -106 -84 -198v-115h-140v113q0 131 80 243q74 86 151 180t76.5 178.5t-43 137.5t-129.5 53q-131 0 -215 -158zM276 0v225h201v-225h-201z" />
<glyph unicode="@" horiz-adv-x="1638" d="M90 736.5q0 318.5 223.5 540.5t525.5 222t505.5 -178t203.5 -451q0 -272 -166 -442q-141 -141 -305 -141q-59 0 -99 36.5t-44 90.5l-4 -2q-113 -125 -243 -125t-214 94t-84 229q0 215 131 387t314.5 172.5t255.5 -157.5l40 123h138l-164 -564q-20 -70 -21 -100 q0 -51 45 -51q113 0 201 136t88 292q0 240 -164 380t-416.5 140t-425.5 -183.5t-173 -451.5t177 -445t435 -177q330 0 506 221h155q-96 -170 -274 -261t-387 -91q-317 0 -538.5 219t-221.5 537.5zM553 631q0 -201 139 -201q133 0 232.5 136t99.5 272q0 92 -44 140t-103 48 q-137 0 -230.5 -129t-93.5 -266z" />
<glyph unicode="A" horiz-adv-x="1251" d="M49 0l455 1479h244l454 -1479h-172l-139 463h-531l-139 -463h-172zM401 602h449l-213 762h-23z" />
<glyph unicode="B" horiz-adv-x="1366" d="M221 0v1479h545q188 0 301 -104.5t113 -260.5q0 -254 -250 -340l2 -4q125 -31 205 -133t80 -240q0 -397 -537 -397h-459zM385 139h307q360 0 361 267q0 139 -104.5 219t-280.5 80h-283v-566zM385 844h287q172 0 258 74t86 178q0 243 -277 243h-2h-352v-495z" />
<glyph unicode="C" horiz-adv-x="1251" d="M86 731q0 368 148.5 568t416.5 200q395 0 500 -430l-152 -45q-43 168 -126.5 252t-246.5 84t-270 -158q-107 -157 -107 -463q-1 -310 111 -466q110 -154 302 -154h2q272 0 360 352l147 -29q-111 -462 -518 -462h-2q-258 0 -411.5 191.5t-153.5 559.5z" />
<glyph unicode="D" horiz-adv-x="1366" d="M205 0v1479h397q307 0 487 -192q181 -193 181 -540q0 -345 -176 -545q-176 -202 -500 -202h-389zM369 139h221q516 0 516 600t-508 600h-229v-1200z" />
<glyph unicode="E" horiz-adv-x="1251" d="M221 0v1479h887v-140h-723v-495h514v-139h-514v-566h764v-139h-928z" />
<glyph unicode="F" horiz-adv-x="1138" d="M205 0v1479h876v-140h-712v-495h528v-139h-528v-705h-164z" />
<glyph unicode="G" horiz-adv-x="1366" d="M98 739q0 375 158 567.5t420 192.5q408 0 532 -434l-155 -31q-102 326 -369 326q-184 0 -293 -133q-129 -158 -129 -488t129 -487q109 -133 288 -133t269 92t90 235v125h-333v140h497v-711h-135v135h-4q-113 -156 -379 -156q-1 0 -2 1q-268 0 -426 192.5t-158 566.5z" />
<glyph unicode="H" horiz-adv-x="1478" d="M221 0v1479h164v-635h709v635h163v-1479h-163v705h-709v-705h-164z" />
<glyph unicode="I" horiz-adv-x="681" d="M258 0v1479h164v-1479h-164z" />
<glyph unicode="J" horiz-adv-x="909" d="M16 170l123 80q82 -131 221 -131q180 0 181 219v1141h164v-1098q0 -401 -340 -401q-201 0 -349 190z" />
<glyph unicode="K" horiz-adv-x="1366" d="M238 0v1479h163v-768h5l612 768h194l-458 -557l514 -922h-187l-440 786l-240 -290v-496h-163z" />
<glyph unicode="L" horiz-adv-x="1138" d="M221 0v1479h164v-1340h700v-139h-864z" />
<glyph unicode="M" horiz-adv-x="1705" d="M221 0v1479h254l377 -1196h4l371 1196h258v-1479h-148v1352h-6l-413 -1352h-127l-416 1352h-6v-1352h-148z" />
<glyph unicode="N" horiz-adv-x="1478" d="M221 0v1479h236l645 -1139h8v1139h147v-1479h-135l-749 1319h-4v-1319h-148z" />
<glyph unicode="O" horiz-adv-x="1366" d="M104 739q0 367 152 563.5t426 196.5t426 -196.5t152 -563.5t-152 -563t-426 -196t-426 196t-152 563zM268 739q0 -620 413 -620h1q414 0 414 620q0 621 -414 621t-414 -621z" />
<glyph unicode="P" horiz-adv-x="1251" d="M205 0v1479h516q225 0 339 -114t114 -302t-135.5 -296t-407.5 -108h-262v-659h-164zM369 799h278q197 0 280 66t83 204q0 270 -326 270h-315v-540z" />
<glyph unicode="Q" horiz-adv-x="1366" d="M104 739q0 367 152 563.5t426 196.5t426 -196.5t152 -563.5t-152 -563q71 -135 223 -135v-160q-129 0 -195.5 44t-131.5 151q-131 -96 -322 -96q-274 0 -426 196.5t-152 562.5zM268 739q0 -620 413 -620h1q143 0 240 82q-70 105 -181 121v157q188 -27 277 -151 q78 150 78 411q0 621 -414 621t-414 -621z" />
<glyph unicode="R" horiz-adv-x="1366" d="M205 0v1479h475q238 0 366 -101.5t128 -287.5q0 -289 -295 -385l313 -705h-178l-299 672h-346v-672h-164zM369 811h297q344 0 344 270q0 258 -346 258h-295v-528z" />
<glyph unicode="S" horiz-adv-x="1251" d="M102 365l150 53q115 -299 387 -299q158 0 242 73.5t84 192.5q0 154 -215 254q-201 82 -402 166q-215 117 -215 313q0 162 124 271.5t321 109.5h2q368 0 485 -364l-147 -33q-29 115 -115 182q-92 76 -230 76q-276 0 -276 -232q0 -129 206 -217q208 -88 408 -172 q217 -123 217 -316t-106 -306q-131 -137 -391 -137q-217 0 -357 126q-96 86 -172 259z" />
<glyph unicode="T" horiz-adv-x="1138" d="M45 1339v140h1049v-140h-443v-1339h-164v1339h-442z" />
<glyph unicode="U" horiz-adv-x="1478" d="M221 446v1033h164v-1045q0 -135 93 -225t261 -90t261.5 90t93.5 225v1045h163v-1033q0 -217 -142 -341.5t-376 -124.5q-233 0 -375 124.5t-143 341.5z" />
<glyph unicode="V" horiz-adv-x="1138" d="M37 1479h164l364 -1213h4l367 1213h166l-459 -1479h-149z" />
<glyph unicode="W" horiz-adv-x="1705" d="M57 1479h156l274 -1180h5l286 1180h146l295 -1180h4l270 1180h156l-351 -1479h-145l-303 1196h-4l-287 -1196h-145z" />
<glyph unicode="X" horiz-adv-x="1138" d="M29 0l442 772l-414 707h189l317 -543l311 543h189l-404 -707l451 -772h-188l-357 610l-348 -610h-188z" />
<glyph unicode="Y" horiz-adv-x="1138" d="M33 1479h180l356 -678l357 678h180l-455 -856v-623h-164v623z" />
<glyph unicode="Z" horiz-adv-x="1138" d="M92 0v119l742 1220h-674v140h878v-107l-753 -1233h762v-139h-955z" />
<glyph unicode="[" horiz-adv-x="681" d="M156 -152v1631h417v-86h-270v-1459h270v-86h-417z" />
<glyph unicode="\" horiz-adv-x="569" d="M-16 1499h125l477 -1519h-123z" />
<glyph unicode="]" horiz-adv-x="681" d="M109 -66h270v1459h-270v86h417v-1631h-417v86z" />
<glyph unicode="^" horiz-adv-x="1228" d="M96 571l459 908h119l459 -908h-129l-392 768l-385 -768h-131z" />
<glyph unicode="_" d="M0 -154h1024v-102h-1024v102z" />
<glyph unicode="`" horiz-adv-x="569" d="M12 1479h224l182 -291h-137z" />
<glyph unicode="a" d="M86 272q0 174 147.5 272.5t503.5 162.5v57q0 195 -212.5 195t-278.5 -166l-129 67q125 225 399 225q154 0 261.5 -78.5t107.5 -240.5v-537q0 -135 24 -229h-151l-17 147q-151 -167 -350 -167h-2q-129 0 -216 76.5t-87 215.5zM233 270q0 -70 55.5 -117t127.5 -47 t163.5 50.5t157.5 126.5v292q-504 -88 -504 -305z" />
<glyph unicode="b" horiz-adv-x="1138" d="M172 0q8 51 8 233v1246h148v-516l8 4q142 119 292 119h2q150 0 269 -121q145 -150 145 -436t-147 -433q-117 -117 -284 -117l-1 1q-168 0 -311 133l-27 -113h-102zM328 250q145 -144 276 -144h1q130 0 211 109t81 309q0 434 -301 434q-135 0 -268 -147v-561z" />
<glyph unicode="c" d="M82 532q0 256 117.5 404.5t318.5 148.5h2q271 0 387 -288l-137 -49q-68 210 -250 210h-2q-137 0 -213 -111.5t-76 -314.5t76 -314.5t213 -111.5q102 0 167 42t126 155l119 -53q-86 -145 -174 -208q-87 -62 -233 -62h-5q-201 0 -318.5 148t-117.5 404z" />
<glyph unicode="d" horiz-adv-x="1138" d="M94 531q0 285 148 434q117 121 266 121h1q150 0 294 -119l8 -4v516h147v-1246q0 -182 9 -233h-136l-20 104q-90 -125 -270 -125l-1 1q-182 0 -298 116q-148 148 -148 435zM242 524q0 -202 80 -310t211 -107l1 -1q132 0 277 144v561q-133 147 -268 147q-301 0 -301 -434z " />
<glyph unicode="e" d="M82 523q0 265 117.5 413.5t306 148.5t302.5 -120.5t114 -362.5v-98h-693q0 -174 91.5 -286t224.5 -112q195 1 295 181l114 -60q-66 -115 -139 -170q-108 -77 -266 -77h-4q-195 0 -320 131q-143 147 -143 412zM233 631h541q0 150 -67.5 238.5t-192.5 88.5t-198 -87.5 t-83 -239.5z" />
<glyph unicode="f" horiz-adv-x="681" d="M55 938v127h181v121q0 180 61 246.5t199 66.5q25 0 131 -10v-131q-108 13 -108 14h1q-76 0 -106.5 -31.5t-30.5 -119.5v-156h231v-127h-231v-938h-147v938h-181z" />
<glyph unicode="g" d="M41 -135q0 76 43 122t137 95q-59 18 -96 60t-37 97t34 92.5t109 84.5q-145 111 -145 287t114.5 279t281.5 103t272 -73q116 82 229 94v-148q-106 0 -164 -28q74 -88 74 -231.5t-113.5 -251t-275.5 -107.5q-88 0 -189 29q-84 -25 -84 -101q0 -75 86 -75h2q371 0 518.5 -70 t147.5 -229q0 -125 -124 -206t-361 -81q-459 0 -459 258zM180 -133q0 -68 70 -101q70 -32 242 -32q354 0 354 153q0 158 -369 158q-158 0 -227 -54q-70 -54 -70 -124zM225 714q0 -107 77 -177t198 -70t187.5 69t66.5 169q0 253 -269 253h-2q-123 0 -190.5 -68.5 t-67.5 -175.5z" />
<glyph unicode="h" horiz-adv-x="1138" d="M182 0v1479h148v-557h4q144 163 313 163h2q131 0 219 -75.5t88 -235.5v-774h-147v770q0 188 -174 188q-154 0 -305 -161v-797h-148z" />
<glyph unicode="i" horiz-adv-x="569" d="M211 0v1065h147v-1065h-147zM211 1323v176h147v-176h-147z" />
<glyph unicode="j" horiz-adv-x="569" d="M45 -248q41 -18 78 -18q117 0 117 106v1225h147v-1235q0 -98 -59.5 -160.5t-149.5 -62.5t-133 24v121zM240 1323v176h147v-176h-147z" />
<glyph unicode="k" d="M172 0v1479h147v-953h5l430 539h178l-314 -393l355 -672h-174l-283 545l-197 -226v-319h-147z" />
<glyph unicode="l" horiz-adv-x="569" d="M211 0v1479h147v-1479h-147z" />
<glyph unicode="m" horiz-adv-x="1705" d="M168 0v1065h147v-141l9 8q153 153 307 153h2q207 0 272 -167q157 167 336 167h2q293 0 293 -323v-762h-147v762q0 196 -164 196h-2q-86 0 -149.5 -41t-147.5 -122v-795h-148v762q0 196 -164 196h-2q-86 0 -149.5 -41t-147.5 -122v-795h-147z" />
<glyph unicode="n" horiz-adv-x="1138" d="M182 0v1065h148v-143h4q144 163 313 163h2q131 0 219 -75.5t88 -235.5v-774h-147v770q0 188 -174 188q-154 0 -305 -161v-797h-148z" />
<glyph unicode="o" d="M76 532q0 242 114 398q113 155 319 155h3q209 0 322.5 -155.5t113.5 -397.5t-114 -398q-113 -155 -319 -154h-3q-209 0 -323 155.5t-113 396.5zM223 532q0 -203 78 -314.5t211 -111.5t211 111.5t78 314.5t-78 314.5t-211 111.5t-211 -111.5t-78 -314.5z" />
<glyph unicode="p" horiz-adv-x="1138" d="M180 -393v1458h148v-125h4q43 61 121.5 103t154.5 42q172 0 289 -116q147 -147 147 -433.5t-145 -435.5q-119 -121 -268 -121q-1 0 -1 1q-151 0 -294 118l-8 4v-495h-148zM328 254q133 -147 268 -148q301 0 301 435q0 201 -81 309t-212 108t-276 -143v-561z" />
<glyph unicode="q" horiz-adv-x="1138" d="M94 537q0 284 148 432q117 117 291 117h1q176 -1 279 -134l27 113h118v-1458h-147v495l-8 -4q-142 -119 -293 -119l-1 1q-151 0 -267 120q-148 151 -148 437zM242 541q0 -434 301 -435q135 1 268 148v561q-145 143 -276 143t-212 -108.5t-81 -308.5z" />
<glyph unicode="r" horiz-adv-x="681" d="M143 0v1065h148v-211h4q66 117 143.5 172t202.5 55v-147q-133 -2 -214 -87t-136 -257v-590h-148z" />
<glyph unicode="s" horiz-adv-x="909" d="M49 182l117 88q115 -164 305 -164q113 0 171 51.5t58 125.5q0 109 -163 168q-150 51 -299 102q-156 77 -156 234v12q4 137 100 213q94 74 244 73h8q104 -2 207.5 -54t157.5 -132l-103 -90q-122 149 -272 149h-2q-193 0 -193 -157q0 -92 160 -148q281 -94 299 -104 q160 -88 160 -246.5t-108 -240.5q-107 -82 -261 -82h-4h-3q-272 0 -423 202z" />
<glyph unicode="t" horiz-adv-x="681" d="M37 938v127h174v350h147v-350h246v-127h-246v-758q0 -74 121 -74q66 0 131 11v-121q-53 -16 -174 -16t-173 38.5t-52 137.5v782h-174z" />
<glyph unicode="u" horiz-adv-x="1138" d="M182 291v774h148v-770q0 -188 174 -189q154 0 305 162v797h147v-1065h-147v143h-4q-144 -163 -314 -163h-2q-131 0 -219 75.5t-88 235.5z" />
<glyph unicode="v" horiz-adv-x="909" d="M33 1065h149l271 -881h4l270 881h150l-320 -1065h-197z" />
<glyph unicode="w" horiz-adv-x="1366" d="M33 1065h149l215 -819h4l209 819h150l213 -823h4l207 823h149l-284 -1065h-150l-213 823h-4l-211 -823h-149z" />
<glyph unicode="x" horiz-adv-x="909" d="M25 0l335 559l-311 506h166l234 -379l223 379h166l-299 -506l346 -559h-170l-266 436l-259 -436h-165z" />
<glyph unicode="y" horiz-adv-x="909" d="M25 1065h155l287 -813h4l250 813h156l-375 -1159q-96 -299 -359 -299q-20 0 -106 12v121q61 -6 80 -6q223 0 278 254z" />
<glyph unicode="z" horiz-adv-x="909" d="M61 0v106l582 832h-524v127h725v-107l-582 -831h586v-127h-787z" />
<glyph unicode="{" horiz-adv-x="681" d="M98 621v86q127 0 127 159v408q0 225 191 225h127v-86h-78q-92 0 -92 -115v-471q0 -137 -152 -161v-4q152 -25 152 -162v-471q0 -115 92 -115h78v-86h-127q-190 0 -191 225v408q0 160 -127 160z" />
<glyph unicode="|" horiz-adv-x="454" d="M164 -20v1519h127v-1519h-127z" />
<glyph unicode="}" horiz-adv-x="681" d="M139 -86h78q92 0 92 115v471q0 137 152 162v4q-152 25 -152 161v471q0 115 -92 115h-78v86h127q190 0 191 -225v-408q0 -159 127 -159v-86q-127 0 -127 -160v-408q0 -225 -191 -225h-127v86z" />
<glyph unicode="~" horiz-adv-x="1228" d="M135 483q100 184 262 185q82 0 233.5 -70t203.5 -70q82 1 180 146l80 -90q-68 -90 -123.5 -136t-136.5 -46.5t-217 69.5t-236 70t-166 -150z" />
<glyph unicode="&#xa1;" horiz-adv-x="681" d="M233 -414l43 1012h132l43 -1012h-218zM242 840v225h200v-225h-200z" />
<glyph unicode="&#xa2;" horiz-adv-x="1251" d="M184 532q0 256 118 404.5t319 148.5q78 0 133 -18l65 182h117l-84 -231q96 -70 158 -221l-138 -49q-24 82 -71 131l-273 -756q39 -16 117 -16.5t142.5 41.5t125.5 155l119 -53q-86 -145 -174 -208t-237 -62q-80 0 -138 22l-84 -229h-116l100 278q-199 141 -199 481z M332 514.5q0 -220.5 102 -326.5l275 754q-39 16 -88 16q-137 0 -213 -111.5t-76 -332z" />
<glyph unicode="&#xa3;" horiz-adv-x="1251" d="M53 672v127h201q-25 156 -25 241q0 211 119 335t332 124q373 0 463 -381l-139 -24q-90 279 -316 278q-164 0 -239 -96q-63 -76 -63.5 -186.5t20.5 -290.5h311v-127h-295q12 -51 12 -140q0 -162 -57 -276q96 -49 193.5 -99.5t162.5 -50.5q260 0 316 263l131 -25 q-61 -365 -410 -364q-133 0 -260 53q-39 14 -209 106q-98 -139 -246 -159v159q92 16 162 112.5t70 219.5t-15 201h-219z" />
<glyph unicode="&#xa4;" horiz-adv-x="1251" d="M115 311l112 113q-111 137 -110 315q0 178 110 316l-112 112l86 86l114 -114q131 109 310 108q178 0 309 -108l115 114l86 -86l-113 -112q111 -137 111 -316q0 -178 -111 -315l113 -113l-86 -86l-115 115q-131 -109 -309 -109t-310 109l-114 -115zM243.5 738 q0.5 -175 109 -281.5t272.5 -106.5t272.5 106.5t108.5 281.5t-108.5 282.5t-272.5 107.5t-273 -107.5t-108.5 -282.5z" />
<glyph unicode="&#xa5;" horiz-adv-x="1251" d="M100 1479h148l377 -711l376 711h148l-301 -566h209v-127h-275l-88 -163v-17h363v-127h-363v-479h-139v479h-362v127h362v17l-86 163h-276v127h208z" />
<glyph unicode="&#xa6;" horiz-adv-x="454" d="M164 -20v573h127v-573h-127zM164 926v573h127v-573h-127z" />
<glyph unicode="&#xa7;" d="M119 815q-2 205 246 217q-84 109 -86 111q-33 55 -33 138t73.5 150.5t176 67.5t172.5 -39q63 -39 139 -131l-98 -55q-51 59 -91 87t-100.5 28t-96.5 -35t-36 -82t38 -95.5t209 -219.5t222 -245.5t51 -162.5q0 -190 -223 -221q111 -127 111 -239.5t-74 -186.5t-207 -74 q-213 0 -313 180l104 66q88 -135 209 -135q61 0 101 36.5t40 103.5t-137 220q-129 135 -258 272q-137 158 -139 244zM258 821q0 -47 33 -90t127 -143t139 -131t92 -31t82 31.5t35 83.5q0 82 -172 254q-90 90 -129 114.5t-87 24.5t-84 -33t-36 -80z" />
<glyph unicode="&#xa8;" horiz-adv-x="569" d="M33 1208v193h180v-193h-180zM356 1208v193h181v-193h-181z" />
<glyph unicode="&#xa9;" horiz-adv-x="1638" d="M49 740q0 325 227.5 542t543.5 217t542.5 -218t226.5 -542t-226 -541.5t-542.5 -217.5t-544 217.5t-227.5 542.5zM197 738.5q0 -273.5 179 -455t444 -181.5t443.5 181.5t178.5 454.5t-179.5 455.5t-442.5 182.5t-443 -182t-180 -455.5zM399 743q0 203 119 333t322 130 q150 0 254 -83t127 -230h-138q-16 88 -81.5 139t-159.5 51q-141 0 -218 -93t-77 -242.5t82 -249.5t217 -101q96 0 160.5 55.5t76.5 145.5h140q-31 -147 -133.5 -235.5t-243.5 -88.5q-201 0 -324 133.5t-123 335.5z" />
<glyph unicode="&#xaa;" horiz-adv-x="614" d="M29 1022q0 94 96 156.5t317 101.5v27q0 98 -134 98t-173 -90l-84 49q82 135 260 135q100 0 171 -47t71 -145v-322q0 -84 16 -137h-108l-12 72q-121 -84 -213.5 -84t-149.5 46t-57 140zM139 1010q0 -80 103.5 -80t199.5 88v168q-303 -57 -303 -176z" />
<glyph unicode="&#xab;" d="M164 532l266 324h143l-264 -324l264 -323h-139zM451 532l266 324h143l-264 -324l264 -323h-139z" />
<glyph unicode="&#xac;" horiz-adv-x="1228" d="M82 678v127h1065v-545h-127v418h-938z" />
<glyph unicode="&#xad;" horiz-adv-x="681" d="M82 469v127h516v-127h-516z" />
<glyph unicode="&#xae;" horiz-adv-x="1638" d="M49 740q0 325 227.5 542t543.5 217t542.5 -218t226.5 -542t-226 -541.5t-542.5 -217.5t-544 217.5t-227.5 542.5zM197 738.5q0 -273.5 179 -455t444 -181.5t443.5 181.5t178.5 454.5t-179.5 455.5t-442.5 182.5t-443 -182t-180 -455.5zM524 301v877h336q311 0 311 -250 q0 -213 -229 -242l250 -385h-148l-233 381h-152v-381h-135zM659 793h160q119 0 168 34.5t49 108.5q0 131 -194 131h-183v-274z" />
<glyph unicode="&#xaf;" horiz-adv-x="569" d="M-35 1253v123h639v-123h-639z" />
<glyph unicode="&#xb0;" horiz-adv-x="819" d="M115 1204q0 123 86 209t209 86t209 -86t86 -209t-86.5 -209t-208.5 -86q-123 0 -209 86t-86 209zM213 1204q0 -86 57.5 -145.5t139.5 -59.5t139 59.5t57 145.5t-57 145.5t-139 59.5t-139.5 -59.5t-57.5 -145.5z" />
<glyph unicode="&#xb1;" horiz-adv-x="1228" d="M82 0v127h1065v-127h-1065zM82 571v127h469v367h127v-367h469v-127h-469v-366h-127v366h-469z" />
<glyph unicode="&#xb2;" horiz-adv-x="749" d="M57 598v111q68 125 207 227q109 74 215 145q98 78 98.5 156t-48 119t-134.5 41q-186 0 -241 -180l-95 32q74 250 342 250q131 0 209 -63.5t78 -181t-108 -216.5q-33 -31 -199 -141t-213 -197h524v-102h-635z" />
<glyph unicode="&#xb3;" horiz-adv-x="749" d="M25 758l81 65q102 -135 261 -135q215 0 215 152q0 182 -263 182h-92v102h84q238 0 238 154q0 47 -47 83t-126 36t-125 -23.5t-93 -81.5l-86 58q117 150 309 149q131 0 204.5 -58.5t73.5 -162.5q0 -150 -133 -195v-4q84 -27 125 -95t41 -142q0 -115 -88 -185.5t-237 -70.5 q-227 0 -342 172z" />
<glyph unicode="&#xb4;" horiz-adv-x="569" d="M152 1188l182 291h223l-268 -291h-137z" />
<glyph unicode="&#xb6;" d="M20 1071q0 199 121 303.5t340 104.5h568v-103h-146v-1548h-123v1548h-209v-1548h-122v850q-184 0 -306.5 114.5t-122.5 278.5z" />
<glyph unicode="&#xb7;" horiz-adv-x="624" d="M184 531q0 54 36 91t90 37t91 -37.5t37 -90t-36.5 -89t-91 -36.5t-90.5 35.5t-36 89.5z" />
<glyph unicode="&#xb8;" horiz-adv-x="569" d="M59 -416l35 90q61 -39 135 -39q115 0 115 89q0 78 -84 77q-53 0 -94 -16l-35 39l129 176h98l-96 -119l4 -4q31 10 62 10q84 0 129 -50t43 -122q-4 -174 -248 -174q-98 0 -193 43z" />
<glyph unicode="&#xb9;" horiz-adv-x="749" d="M156 1370v68q71 18 182 61h111v-799h161v-102h-436v102h156v697z" />
<glyph unicode="&#xba;" horiz-adv-x="614" d="M25 1167q0 154 76.5 243t206.5 89t206 -88t76 -244t-76 -243.5t-206 -87.5t-206.5 88.5t-76.5 242.5zM143 1171q0 -238 164 -237q164 0 164 233t-164 234q-76 0 -120 -62t-44 -168z" />
<glyph unicode="&#xbb;" d="M164 209l264 323l-264 324h143l266 -324l-270 -323h-139zM451 209l264 323l-264 324h143l266 -324l-270 -323h-139z" />
<glyph unicode="&#xbc;" horiz-adv-x="1875" d="M180 1370v68q71 18 182 61h111v-799h162v-102h-436v102h155v697zM449 -20l899 1519h127l-906 -1519h-120zM1075 209v92l379 588h158v-578h166v-102h-166v-209h-111v209h-426zM1200 311h301v459h-4z" />
<glyph unicode="&#xbd;" horiz-adv-x="1875" d="M180 1370v68q71 18 182 61h111v-799h162v-102h-436v102h155v697zM408 -20l899 1519h127l-906 -1519h-120zM1126 0v111q68 125 207 227q109 74 215 145q98 78 98.5 156t-48 119t-134.5 41q-186 0 -241 -181l-95 33q74 250 342 250q131 0 209 -63.5t78 -181t-108 -216.5 q-33 -31 -199 -141t-213 -197h524v-102h-635z" />
<glyph unicode="&#xbe;" horiz-adv-x="1875" d="M98 758l82 65q102 -135 260 -135q215 0 215 152q0 182 -262 182h-92v102h84q238 0 238 154q0 47 -47.5 83t-126 36t-124.5 -23.5t-94 -81.5l-86 58q117 150 310 149q131 0 204.5 -58.5t73.5 -162.5q0 -150 -133 -195v-4q84 -27 125 -95t41 -142q0 -115 -88 -185.5 t-238 -70.5q-227 0 -342 172zM481 -20l899 1519h127l-905 -1519h-121zM1075 209v92l379 588h158v-578h166v-102h-166v-209h-111v209h-426zM1200 311h301v459h-4z" />
<glyph unicode="&#xbf;" horiz-adv-x="909" d="M135.5 -138q-0.5 128 83.5 240q78 92 156 183q84 106 84 198v115h139v-113q0 -131 -80 -243q-74 -86 -150.5 -180t-76.5 -178.5t43 -137.5t129 -53q131 0 215 157l123 -59q-102 -225 -334 -225q-137 0 -234 84t-97.5 212zM432 840v225h201v-225h-201z" />
<glyph unicode="&#xc0;" horiz-adv-x="1251" d="M49 0l455 1479h244l454 -1479h-172l-139 463h-531l-139 -463h-172zM354 1848h224l182 -291h-137zM401 602h449l-213 762h-23z" />
<glyph unicode="&#xc1;" horiz-adv-x="1251" d="M49 0l455 1479h244l454 -1479h-172l-139 463h-531l-139 -463h-172zM401 602h449l-213 762h-23zM494 1557l182 291h223l-268 -291h-137z" />
<glyph unicode="&#xc2;" horiz-adv-x="1251" d="M49 0l455 1479h244l454 -1479h-172l-139 463h-531l-139 -463h-172zM328 1557l200 291h193l205 -291h-164l-137 192l-133 -192h-164zM401 602h449l-213 762h-23z" />
<glyph unicode="&#xc3;" horiz-adv-x="1251" d="M49 0l455 1479h244l454 -1479h-172l-139 463h-531l-139 -463h-172zM276 1575q10 98 66.5 161t153.5 63q59 0 150 -38t132 -38q82 0 96 90h103q-8 -82 -64.5 -151t-123 -68.5t-171 39.5t-144.5 39t-66.5 -31t-28.5 -66h-103zM401 602h449l-213 762h-23z" />
<glyph unicode="&#xc4;" horiz-adv-x="1251" d="M49 0l455 1479h244l454 -1479h-172l-139 463h-531l-139 -463h-172zM375 1577v193h180v-193h-180zM401 602h449l-213 762h-23zM698 1577v193h181v-193h-181z" />
<glyph unicode="&#xc5;" horiz-adv-x="1251" d="M49 0l455 1479h244l454 -1479h-172l-139 463h-531l-139 -463h-172zM401 602h449l-213 762h-23zM422 1762q0 84 60.5 144t144.5 60t144 -60t60 -144t-60 -144.5t-144 -60.5t-144.5 60.5t-60.5 144.5zM512 1762q0 -47 34 -81t81 -34t80.5 34t33.5 81t-33.5 80.5t-80.5 33.5 t-81 -33.5t-34 -80.5z" />
<glyph unicode="&#xc6;" horiz-adv-x="2048" d="M33 0l833 1479h1039v-140h-723v-495h514v-139h-514v-566h764v-139h-928v463h-545l-254 -463h-186zM553 602h465v762h-45z" />
<glyph unicode="&#xc7;" horiz-adv-x="1251" d="M86 731q0 368 148.5 568t416.5 200q395 0 500 -430l-152 -45q-43 168 -126.5 252t-246.5 84t-270 -158t-106.5 -466t111 -463t303.5 -154q272 0 360 352l147 -29q-111 -463 -520 -462q-258 0 -411.5 191.5t-153.5 559.5zM419 -416l35 90q61 -39 135 -39q115 0 115 89 q0 78 -84 77q-53 0 -94 -16l-35 39l129 176h98l-96 -119l4 -4q31 10 62 10q84 0 129 -50t43 -122q-4 -174 -248 -174q-98 0 -193 43z" />
<glyph unicode="&#xc8;" horiz-adv-x="1251" d="M221 0v1479h887v-140h-723v-495h514v-139h-514v-566h764v-139h-928zM411 1848h224l182 -291h-137z" />
<glyph unicode="&#xc9;" horiz-adv-x="1251" d="M221 0v1479h887v-140h-723v-495h514v-139h-514v-566h764v-139h-928zM551 1557l182 291h223l-268 -291h-137z" />
<glyph unicode="&#xca;" horiz-adv-x="1251" d="M221 0v1479h887v-140h-723v-495h514v-139h-514v-566h764v-139h-928zM385 1557l200 291h193l205 -291h-164l-137 192l-133 -192h-164z" />
<glyph unicode="&#xcb;" horiz-adv-x="1251" d="M221 0v1479h887v-140h-723v-495h514v-139h-514v-566h764v-139h-928zM432 1577v193h180v-193h-180zM755 1577v193h181v-193h-181z" />
<glyph unicode="&#xcc;" horiz-adv-x="681" d="M69 1848h224l182 -291h-137zM258 0v1479h164v-1479h-164z" />
<glyph unicode="&#xcd;" horiz-adv-x="681" d="M209 1557l182 291h223l-268 -291h-137zM258 0v1479h164v-1479h-164z" />
<glyph unicode="&#xce;" horiz-adv-x="681" d="M43 1557l200 291h193l205 -291h-164l-137 192l-133 -192h-164zM258 0v1479h164v-1479h-164z" />
<glyph unicode="&#xcf;" horiz-adv-x="681" d="M90 1577v193h180v-193h-180zM258 0v1479h164v-1479h-164zM413 1577v193h181v-193h-181z" />
<glyph unicode="&#xd0;" horiz-adv-x="1366" d="M66 705v139h139v635h397q307 0 487 -192t180.5 -538t-175.5 -547.5t-500 -201.5h-389v705h-139zM369 139h221q516 0 516 600t-508 600h-229v-495h385v-139h-385v-566z" />
<glyph unicode="&#xd1;" horiz-adv-x="1478" d="M221 0v1479h236l645 -1139h8v1139h147v-1479h-135l-749 1319h-4v-1319h-148zM389 1575q10 98 66.5 161t153.5 63q59 0 150 -38t132 -38q82 0 96 90h103q-8 -82 -64.5 -151t-123 -68.5t-171 39.5t-144.5 39t-66.5 -31t-28.5 -66h-103z" />
<glyph unicode="&#xd2;" horiz-adv-x="1366" d="M104 739q0 367 152 563.5t426 196.5t426 -196.5t152 -563.5t-152 -563t-426 -196t-426 196t-152 563zM268 739q0 -621 414 -620q414 0 414 620q0 621 -414 621t-414 -621zM411 1848h224l182 -291h-137z" />
<glyph unicode="&#xd3;" horiz-adv-x="1366" d="M104 739q0 367 152 563.5t426 196.5t426 -196.5t152 -563.5t-152 -563t-426 -196t-426 196t-152 563zM268 739q0 -621 414 -620q414 0 414 620q0 621 -414 621t-414 -621zM551 1557l182 291h223l-268 -291h-137z" />
<glyph unicode="&#xd4;" horiz-adv-x="1366" d="M104 739q0 367 152 563.5t426 196.5t426 -196.5t152 -563.5t-152 -563t-426 -196t-426 196t-152 563zM268 739q0 -621 414 -620q414 0 414 620q0 621 -414 621t-414 -621zM385 1557l200 291h193l205 -291h-164l-137 192l-133 -192h-164z" />
<glyph unicode="&#xd5;" horiz-adv-x="1366" d="M104 739q0 367 152 563.5t426 196.5t426 -196.5t152 -563.5t-152 -563t-426 -196t-426 196t-152 563zM268 739q0 -621 414 -620q414 0 414 620q0 621 -414 621t-414 -621zM333 1575q10 98 66.5 161t153.5 63q59 0 150 -38t132 -38q82 0 96 90h103q-8 -82 -64.5 -151 t-123 -68.5t-171 39.5t-144.5 39t-66.5 -31t-28.5 -66h-103z" />
<glyph unicode="&#xd6;" horiz-adv-x="1366" d="M104 739q0 367 152 563.5t426 196.5t426 -196.5t152 -563.5t-152 -563t-426 -196t-426 196t-152 563zM268 739q0 -621 414 -620q414 0 414 620q0 621 -414 621t-414 -621zM432 1577v193h180v-193h-180zM755 1577v193h181v-193h-181z" />
<glyph unicode="&#xd7;" horiz-adv-x="1228" d="M82 90l442 442l-442 443l90 90l442 -447l443 447l90 -90l-442 -443l442 -442l-90 -90l-443 442l-442 -442z" />
<glyph unicode="&#xd8;" horiz-adv-x="1366" d="M66 -131l192 305q-154 197 -154 564.5t152 564t426 196.5q203 0 336 -106l115 184h143l-170 -270q154 -199 154 -567t-152 -564t-426 -196q-201 0 -340 110l-139 -221h-137zM268 739q0 -263 82 -415l588 940q-100 96 -256 96q-414 0 -414 -621zM424 219q94 -100 258 -100 q414 0 414 620q0 266 -82 420z" />
<glyph unicode="&#xd9;" horiz-adv-x="1478" d="M221 446v1033h164v-1045q0 -135 93 -225t261 -90t261.5 90t93.5 225v1045h163v-1033q0 -217 -142 -341.5t-376 -124.5q-233 0 -375 124.5t-143 341.5zM467 1848h224l182 -291h-137z" />
<glyph unicode="&#xda;" horiz-adv-x="1478" d="M221 446v1033h164v-1045q0 -135 93 -225t261 -90t261.5 90t93.5 225v1045h163v-1033q0 -217 -142 -341.5t-376 -124.5q-233 0 -375 124.5t-143 341.5zM607 1557l182 291h223l-268 -291h-137z" />
<glyph unicode="&#xdb;" horiz-adv-x="1478" d="M221 446v1033h164v-1045q0 -135 93 -225t261 -90t261.5 90t93.5 225v1045h163v-1033q0 -217 -142 -341.5t-376 -124.5q-233 0 -375 124.5t-143 341.5zM441 1557l200 291h193l205 -291h-164l-137 192l-133 -192h-164z" />
<glyph unicode="&#xdc;" horiz-adv-x="1478" d="M221 446v1033h164v-1045q0 -135 93 -225t261 -90t261.5 90t93.5 225v1045h163v-1033q0 -217 -142 -341.5t-376 -124.5q-233 0 -375 124.5t-143 341.5zM488 1577v193h180v-193h-180zM811 1577v193h181v-193h-181z" />
<glyph unicode="&#xdd;" horiz-adv-x="1138" d="M33 1479h180l356 -678l357 678h180l-455 -856v-623h-164v623zM437 1557l182 291h223l-268 -291h-137z" />
<glyph unicode="&#xde;" horiz-adv-x="1251" d="M205 0v1479h164v-287h352q225 0 339 -114t114 -302t-135.5 -296t-407.5 -107h-262v-373h-164zM369 512h278q197 0 280 66.5t83 203.5q0 270 -326 271h-315v-541z" />
<glyph unicode="&#xdf;" horiz-adv-x="1138" d="M193 0v1135q0 184 110 274t279 90t266.5 -98t97.5 -258q0 -219 -182 -309v-5q272 -80 272 -428q0 -195 -102 -308.5t-236.5 -113t-224.5 55.5l55 121q57 -49 155.5 -49.5t152 79.5t53.5 205q0 362 -371 363v127h60q90 0 155.5 71.5t65.5 177.5q0 242 -230 242 q-229 0 -229 -274v-1098h-147z" />
<glyph unicode="&#xe0;" d="M86 272q0 174 147.5 272.5t503.5 162.5v57q0 195 -212.5 195t-278.5 -166l-129 67q125 225 399 225q154 0 261.5 -78.5t107.5 -240.5v-537q0 -135 24 -229h-151l-17 147q-152 -168 -352 -167q-129 0 -216 76.5t-87 215.5zM229 1479h224l182 -291h-137zM233 270 q0 -70 55.5 -117t127.5 -47t163.5 50.5t157.5 126.5v292q-504 -88 -504 -305z" />
<glyph unicode="&#xe1;" d="M86 272q0 174 147.5 272.5t503.5 162.5v57q0 195 -212.5 195t-278.5 -166l-129 67q125 225 399 225q154 0 261.5 -78.5t107.5 -240.5v-537q0 -135 24 -229h-151l-17 147q-152 -168 -352 -167q-129 0 -216 76.5t-87 215.5zM233 270q0 -70 55.5 -117t127.5 -47t163.5 50.5 t157.5 126.5v292q-504 -88 -504 -305zM369 1188l182 291h223l-268 -291h-137z" />
<glyph unicode="&#xe2;" d="M86 272q0 174 147.5 272.5t503.5 162.5v57q0 195 -212.5 195t-278.5 -166l-129 67q125 225 399 225q154 0 261.5 -78.5t107.5 -240.5v-537q0 -135 24 -229h-151l-17 147q-152 -168 -352 -167q-129 0 -216 76.5t-87 215.5zM203 1188l200 291h193l205 -291h-164l-137 192 l-133 -192h-164zM233 270q0 -70 55.5 -117t127.5 -47t163.5 50.5t157.5 126.5v292q-504 -88 -504 -305z" />
<glyph unicode="&#xe3;" d="M86 272q0 174 147.5 272.5t503.5 162.5v57q0 195 -212.5 195t-278.5 -166l-129 67q125 225 399 225q154 0 261.5 -78.5t107.5 -240.5v-537q0 -135 24 -229h-151l-17 147q-152 -168 -352 -167q-129 0 -216 76.5t-87 215.5zM151 1206q10 98 66.5 161t153.5 63q59 0 150 -38 t132 -38q82 0 96 90h103q-8 -82 -64.5 -151t-123 -68.5t-171 39.5t-144.5 39t-66.5 -31t-28.5 -66h-103zM233 270q0 -70 55.5 -117t127.5 -47t163.5 50.5t157.5 126.5v292q-504 -88 -504 -305z" />
<glyph unicode="&#xe4;" d="M86 272q0 174 147.5 272.5t503.5 162.5v57q0 195 -212.5 195t-278.5 -166l-129 67q125 225 399 225q154 0 261.5 -78.5t107.5 -240.5v-537q0 -135 24 -229h-151l-17 147q-152 -168 -352 -167q-129 0 -216 76.5t-87 215.5zM233 270q0 -70 55.5 -117t127.5 -47t163.5 50.5 t157.5 126.5v292q-504 -88 -504 -305zM250 1208v193h180v-193h-180zM573 1208v193h181v-193h-181z" />
<glyph unicode="&#xe5;" d="M86 272q0 174 147.5 272.5t503.5 162.5v57q0 195 -212.5 195t-278.5 -166l-129 67q125 225 399 225q154 0 261.5 -78.5t107.5 -240.5v-537q0 -135 24 -229h-151l-17 147q-152 -168 -352 -167q-129 0 -216 76.5t-87 215.5zM233 270q0 -70 55.5 -117t127.5 -47t163.5 50.5 t157.5 126.5v292q-504 -88 -504 -305zM297 1393q0 84 60.5 144t144.5 60t144 -60t60 -144t-60 -144.5t-144 -60.5t-144.5 60.5t-60.5 144.5zM387 1393q0 -47 34 -81t81 -34t80.5 34t33.5 81t-33.5 80.5t-80.5 33.5t-81 -33.5t-34 -80.5z" />
<glyph unicode="&#xe6;" horiz-adv-x="1593" d="M70 250q0 215 190 328q133 78 428 129v57q0 195 -200 194.5t-265 -165.5l-125 67q117 225 381 225q215 0 307 -143q115 143 297.5 143t295 -120.5t112.5 -362.5v-98h-655q0 -397 303 -398q170 0 270 181l115 -60q-66 -115 -140 -170q-102 -78 -258 -77q-240 0 -356 180 q-109 -106 -202 -143.5t-207 -37t-197 71.5q-94 76 -94 199zM217 270q0 -72 51 -118t133 -46t168 54.5t119 113.5v301q-471 -94 -471 -305zM836 631h507q0 150 -69.5 238.5t-188.5 88.5q-243 1 -249 -327z" />
<glyph unicode="&#xe7;" d="M82 532q0 256 117.5 404.5t318.5 148.5q272 1 389 -288l-137 -49q-68 211 -252 210q-137 0 -213 -111.5t-76 -314.5t76 -314.5t213 -111.5q102 0 167 42t126 155l119 -53q-86 -145 -174 -208t-238 -62q-201 0 -318.5 148t-117.5 404zM286 -416l35 90q61 -39 135 -39 q115 0 115 89q0 78 -84 77q-53 0 -94 -16l-35 39l129 176h98l-96 -119l4 -4q31 10 62 10q84 0 129 -50t43 -122q-4 -174 -248 -174q-98 0 -193 43z" />
<glyph unicode="&#xe8;" d="M82 523q0 265 117.5 413.5t306 148.5t302.5 -120.5t114 -362.5v-98h-693q0 -174 91.5 -286t224.5 -112q195 1 295 181l114 -60q-66 -115 -139 -170q-109 -78 -270 -77q-195 0 -320 131q-143 147 -143 412zM233 631h541q0 150 -67.5 238.5t-192.5 88.5t-198 -87.5 t-83 -239.5zM239 1479h224l182 -291h-137z" />
<glyph unicode="&#xe9;" d="M82 523q0 265 117.5 413.5t306 148.5t302.5 -120.5t114 -362.5v-98h-693q0 -174 91.5 -286t224.5 -112q195 1 295 181l114 -60q-66 -115 -139 -170q-109 -78 -270 -77q-195 0 -320 131q-143 147 -143 412zM233 631h541q0 150 -67.5 238.5t-192.5 88.5t-198 -87.5 t-83 -239.5zM379 1188l182 291h223l-268 -291h-137z" />
<glyph unicode="&#xea;" d="M82 523q0 265 117.5 413.5t306 148.5t302.5 -120.5t114 -362.5v-98h-693q0 -174 91.5 -286t224.5 -112q195 1 295 181l114 -60q-66 -115 -139 -170q-109 -78 -270 -77q-195 0 -320 131q-143 147 -143 412zM213 1188l200 291h193l205 -291h-164l-137 192l-133 -192h-164z M233 631h541q0 150 -67.5 238.5t-192.5 88.5t-198 -87.5t-83 -239.5z" />
<glyph unicode="&#xeb;" d="M82 523q0 265 117.5 413.5t306 148.5t302.5 -120.5t114 -362.5v-98h-693q0 -174 91.5 -286t224.5 -112q195 1 295 181l114 -60q-66 -115 -139 -170q-109 -78 -270 -77q-195 0 -320 131q-143 147 -143 412zM233 631h541q0 150 -67.5 238.5t-192.5 88.5t-198 -87.5 t-83 -239.5zM260 1208v193h180v-193h-180zM583 1208v193h181v-193h-181z" />
<glyph unicode="&#xec;" horiz-adv-x="569" d="M12 1479h224l182 -291h-137zM211 0v1065h147v-1065h-147z" />
<glyph unicode="&#xed;" horiz-adv-x="569" d="M152 1188l182 291h223l-268 -291h-137zM211 0v1065h147v-1065h-147z" />
<glyph unicode="&#xee;" horiz-adv-x="569" d="M-14 1188l200 291h193l205 -291h-164l-137 192l-133 -192h-164zM211 0v1065h147v-1065h-147z" />
<glyph unicode="&#xef;" horiz-adv-x="569" d="M33 1208v193h180v-193h-180zM211 0v1065h147v-1065h-147zM356 1208v193h181v-193h-181z" />
<glyph unicode="&#xf0;" d="M75.5 501q0.5 241 112 380t324.5 139q59 0 152 -29q-41 88 -132 189l-217 -119l-69 98l207 113q-105 103 -191 158l129 49q92 -57 174 -140l226 123l61 -102l-199 -113q295 -338 295 -719q0 -248 -112.5 -398.5t-324.5 -150t-324 140.5t-111.5 381zM223 501 q0 -183 73 -289t216 -106t216 105.5t73 289t-74 288t-215 104.5t-215 -104.5t-74 -287.5z" />
<glyph unicode="&#xf1;" horiz-adv-x="1138" d="M182 0v1065h148v-143h4q145 164 315 163q131 0 219 -75.5t88 -235.5v-774h-147v770q0 188 -174 188q-154 0 -305 -161v-797h-148zM219 1206q10 98 66.5 161t153.5 63q59 0 150 -38t132 -38q82 0 96 90h103q-8 -82 -64.5 -151t-123 -68.5t-171 39.5t-144.5 39t-66.5 -31 t-28.5 -66h-103z" />
<glyph unicode="&#xf2;" d="M76 532q0 242 113.5 398t322.5 155q209 0 322.5 -155.5t113.5 -397.5t-113.5 -397.5t-322.5 -154.5q-209 0 -323 155.5t-113 396.5zM223 532q0 -203 78 -314.5t211 -111.5t211 111.5t78 314.5t-78 314.5t-211 111.5t-211 -111.5t-78 -314.5zM239 1479h224l182 -291h-137z " />
<glyph unicode="&#xf3;" d="M76 532q0 242 113.5 398t322.5 155q209 0 322.5 -155.5t113.5 -397.5t-113.5 -397.5t-322.5 -154.5q-209 0 -323 155.5t-113 396.5zM223 532q0 -203 78 -314.5t211 -111.5t211 111.5t78 314.5t-78 314.5t-211 111.5t-211 -111.5t-78 -314.5zM379 1188l182 291h223 l-268 -291h-137z" />
<glyph unicode="&#xf4;" d="M76 532q0 242 113.5 398t322.5 155q209 0 322.5 -155.5t113.5 -397.5t-113.5 -397.5t-322.5 -154.5q-209 0 -323 155.5t-113 396.5zM213 1188l200 291h193l205 -291h-164l-137 192l-133 -192h-164zM223 532q0 -203 78 -314.5t211 -111.5t211 111.5t78 314.5t-78 314.5 t-211 111.5t-211 -111.5t-78 -314.5z" />
<glyph unicode="&#xf5;" d="M76 532q0 242 113.5 398t322.5 155q209 0 322.5 -155.5t113.5 -397.5t-113.5 -397.5t-322.5 -154.5q-209 0 -323 155.5t-113 396.5zM161 1206q10 98 66.5 161t153.5 63q59 0 150 -38t132 -38q82 0 96 90h103q-8 -82 -64.5 -151t-123 -68.5t-171 39.5t-144.5 39t-66.5 -31 t-28.5 -66h-103zM223 532q0 -203 78 -314.5t211 -111.5t211 111.5t78 314.5t-78 314.5t-211 111.5t-211 -111.5t-78 -314.5z" />
<glyph unicode="&#xf6;" d="M76 532q0 242 113.5 398t322.5 155q209 0 322.5 -155.5t113.5 -397.5t-113.5 -397.5t-322.5 -154.5q-209 0 -323 155.5t-113 396.5zM223 532q0 -203 78 -314.5t211 -111.5t211 111.5t78 314.5t-78 314.5t-211 111.5t-211 -111.5t-78 -314.5zM260 1208v193h180v-193h-180z M583 1208v193h181v-193h-181z" />
<glyph unicode="&#xf7;" horiz-adv-x="1228" d="M82 469v127h1065v-127h-1065zM487 107q0 52 38 89t90 37t89 -36.5t37 -89t-36.5 -90t-89 -37.5t-90.5 37.5t-38 89.5zM487 959q0 52 38 89t90 37t89 -36.5t37 -89t-36.5 -90.5t-89 -38t-90.5 38t-38 90z" />
<glyph unicode="&#xf8;" d="M33 -168l170 289q-127 152 -127 402.5t113.5 406.5t322.5 155q129 0 221 -63l125 211h133l-168 -287q125 -154 125 -405t-113.5 -406.5t-322.5 -154.5q-135 0 -223 63l-125 -211h-131zM223.5 546.5q0.5 -188.5 57.5 -292.5l385 653q-63 51 -154 51q-133 0 -211 -111.5 t-77.5 -300zM356 158q63 -51 156 -52q133 0 211 112t77.5 300.5t-57.5 292.5z" />
<glyph unicode="&#xf9;" horiz-adv-x="1138" d="M182 291v774h148v-770q0 -188 174 -189q154 0 305 162v797h147v-1065h-147v143h-4q-145 -164 -316 -163q-131 0 -219 75.5t-88 235.5zM297 1479h224l182 -291h-137z" />
<glyph unicode="&#xfa;" horiz-adv-x="1138" d="M182 291v774h148v-770q0 -188 174 -189q154 0 305 162v797h147v-1065h-147v143h-4q-145 -164 -316 -163q-131 0 -219 75.5t-88 235.5zM437 1188l182 291h223l-268 -291h-137z" />
<glyph unicode="&#xfb;" horiz-adv-x="1138" d="M182 291v774h148v-770q0 -188 174 -189q154 0 305 162v797h147v-1065h-147v143h-4q-145 -164 -316 -163q-131 0 -219 75.5t-88 235.5zM271 1188l200 291h193l205 -291h-164l-137 192l-133 -192h-164z" />
<glyph unicode="&#xfc;" horiz-adv-x="1138" d="M182 291v774h148v-770q0 -188 174 -189q154 0 305 162v797h147v-1065h-147v143h-4q-145 -164 -316 -163q-131 0 -219 75.5t-88 235.5zM318 1208v193h180v-193h-180zM641 1208v193h181v-193h-181z" />
<glyph unicode="&#xfd;" horiz-adv-x="909" d="M25 1065h155l287 -813h4l250 813h156l-375 -1159q-96 -299 -359 -299q-20 0 -106 12v121q61 -6 80 -6q223 0 278 254zM322 1188l182 291h223l-268 -291h-137z" />
<glyph unicode="&#xfe;" horiz-adv-x="1138" d="M180 -393v1872h148v-539h4q43 61 121.5 103t154.5 42q172 0 289 -116q147 -147 147 -433.5t-145 -435.5q-119 -121 -269.5 -120.5t-293.5 118.5l-8 4v-495h-148zM328 254q133 -147 268 -148q301 0 301 435q0 201 -81 309t-212 108t-276 -143v-561z" />
<glyph unicode="&#xff;" horiz-adv-x="909" d="M25 1065h155l287 -813h4l250 813h156l-375 -1159q-96 -299 -359 -299q-20 0 -106 12v121q61 -6 80 -6q223 0 278 254zM203 1208v193h180v-193h-180zM526 1208v193h181v-193h-181z" />
<glyph unicode="&#x152;" horiz-adv-x="2048" d="M74 739q0 344 147 541q164 219 488 219q70 0 181 -10t159 -10h882v-140h-723v-495h514v-139h-514v-566h764v-139h-923q-47 0 -159 -10t-181 -10q-324 0 -488 219q-147 197 -147 540zM238 739q0 -621 467 -620q172 0 255.5 60.5t83.5 205.5v709q0 145 -86 209 q-82 57 -253 57q-467 0 -467 -621z" />
<glyph unicode="&#x153;" horiz-adv-x="1593" d="M47 532q0 254 113.5 403.5t298.5 149.5q225 0 344 -190q90 190 340 190q166 0 277.5 -121.5t111.5 -361.5v-98h-655q0 -397 278 -398q201 0 275 181l114 -60q-109 -248 -389 -247q-258 0 -352 194q-115 -195 -344 -194q-184 0 -298 149.5t-114 402.5zM195 532 q0 -203 68.5 -314.5t195.5 -111.5q270 0 270 426t-270 426q-127 0 -195.5 -111.5t-68.5 -314.5zM881 631h503q0 150 -67.5 238.5t-186.5 88.5q-243 1 -249 -327z" />
<glyph unicode="&#x178;" horiz-adv-x="1138" d="M33 1479h180l356 -678l357 678h180l-455 -856v-623h-164v623zM318 1577v193h180v-193h-180zM641 1577v193h181v-193h-181z" />
<glyph unicode="&#x2c6;" horiz-adv-x="569" d="M-14 1188l200 291h193l205 -291h-164l-137 192l-133 -192h-164z" />
<glyph unicode="&#x2dc;" horiz-adv-x="569" d="M-66 1206q10 98 66.5 161t153.5 63q59 0 150 -38t132 -38q82 0 96 90h103q-8 -82 -64.5 -151t-123 -68.5t-171 39.5t-144.5 39t-66.5 -31t-28.5 -66h-103z" />
<glyph unicode="&#x2000;" horiz-adv-x="983" />
<glyph unicode="&#x2001;" horiz-adv-x="1966" />
<glyph unicode="&#x2002;" horiz-adv-x="983" />
<glyph unicode="&#x2003;" horiz-adv-x="1966" />
<glyph unicode="&#x2004;" horiz-adv-x="655" />
<glyph unicode="&#x2005;" horiz-adv-x="491" />
<glyph unicode="&#x2006;" horiz-adv-x="327" />
<glyph unicode="&#x2007;" horiz-adv-x="327" />
<glyph unicode="&#x2008;" horiz-adv-x="245" />
<glyph unicode="&#x2009;" horiz-adv-x="393" />
<glyph unicode="&#x200a;" horiz-adv-x="109" />
<glyph unicode="&#x2010;" horiz-adv-x="681" d="M82 469v127h516v-127h-516z" />
<glyph unicode="&#x2011;" horiz-adv-x="681" d="M82 469v127h516v-127h-516z" />
<glyph unicode="&#x2012;" horiz-adv-x="681" d="M82 469v127h516v-127h-516z" />
<glyph unicode="&#x2013;" d="M0 481v103h1024v-103h-1024z" />
<glyph unicode="&#x2014;" horiz-adv-x="2048" d="M0 481v103h2048v-103h-2048z" />
<glyph unicode="&#x2018;" horiz-adv-x="569" d="M178 983v225l129 291h86l-96 -291h82v-225h-201z" />
<glyph unicode="&#x2019;" horiz-adv-x="569" d="M176 963l96 290h-82v226h201v-226l-129 -290h-86z" />
<glyph unicode="&#x201a;" horiz-adv-x="569" d="M176 -291l96 291h-82v225h201v-225l-129 -291h-86z" />
<glyph unicode="&#x201c;" d="M211 983v225l129 291h86l-96 -291h82v-225h-201zM629 983v225l129 291h86l-96 -291h81v-225h-200z" />
<glyph unicode="&#x201d;" d="M180 963l96 290h-81v226h200v-226l-129 -290h-86zM598 963l96 290h-82v226h201v-226l-129 -290h-86z" />
<glyph unicode="&#x201e;" d="M180 -291l96 291h-81v225h200v-225l-129 -291h-86zM598 -291l96 291h-82v225h201v-225l-129 -291h-86z" />
<glyph unicode="&#x2022;" d="M141 739q0 154 107.5 261.5t261.5 107.5t262.5 -107.5t108.5 -261.5t-108.5 -262t-262.5 -108t-261.5 108t-107.5 262z" />
<glyph unicode="&#x2026;" horiz-adv-x="2048" d="M242 0v225h200v-225h-200zM924 0v225h200v-225h-200zM1606 0v225h200v-225h-200z" />
<glyph unicode="&#x202f;" horiz-adv-x="393" />
<glyph unicode="&#x2039;" horiz-adv-x="681" d="M111 532l266 324h143l-264 -324l264 -323h-139z" />
<glyph unicode="&#x203a;" horiz-adv-x="681" d="M162 209l264 323l-264 324h143l266 -324l-270 -323h-139z" />
<glyph unicode="&#x205f;" horiz-adv-x="491" />
<glyph unicode="&#x2122;" horiz-adv-x="2027" d="M111 1368v111h659v-111h-262v-733h-139v733h-258zM893 635v844h215l254 -639l246 639h215v-844h-140v704h-4l-276 -704h-90l-277 704h-4v-704h-139z" />
<glyph unicode="&#xe000;" horiz-adv-x="1064" d="M0 0v1065h1065v-1065h-1065z" />
</font>
</defs>
</svg>
